{
	"asset" : {
		"generator" : "FME 2023.2.1.0",
		"version" : "2.0"
	},
	"images" : [
		{
			"uri" : "T21750168000106E10_001.jpg"
		}
	],
	"samplers" : [
		{
			"wrapS" : 10497,
			"wrapT" : 10497,
			"magFilter" : 9729,
			"minFilter" : 9986
		}
	],
	"textures" : [
		{
			"source" : 0,
			"sampler" : 0
		}
	],
	"materials" : [
		{
			"name" : "T21750168000106E10",
			"pbrMetallicRoughness" : {
				"baseColorTexture" : {
					"index" : 0,
					"texCoord" : 0
				},
				"roughnessFactor" : 0.984375,
				"metallicFactor" : 0.5
			}
		}
	],
	"meshes" : [
		{
			"primitives" : [
				{
					"attributes" : {
						"NORMAL" : 1,
						"POSITION" : 0,
						"TEXCOORD_0" : 2
					},
					"indices" : 3,
					"material" : 0,
					"mode" : 4
				}
			]
		}
	],
	"nodes" : [
		{
			"name" : "T21750168000106E10",
			"matrix" : [ 1, 0, 0, 0, 0, 0, -1, 0, 0, 1, 0, 0, 822125, 1.1599998474121094, -817100, 1 ],
			"children" : [ 1 ]
		},
		{
			"mesh" : 0
		}
	],
	"scenes" : [
		{
			"nodes" : [ 0 ]
		}
	],
	"scene" : 0,
	"accessors" : [
		{
			"bufferView" : 0,
			"byteOffset" : 0,
			"componentType" : 5126,
			"count" : 330225,
			"type" : "VEC3",
			"min" : [ -375, -300.0078125, 0 ],
			"max" : [ 375.046875, 300, 47.20000076293945 ]
		},
		{
			"bufferView" : 1,
			"byteOffset" : 0,
			"componentType" : 5126,
			"count" : 330225,
			"type" : "VEC3",
			"min" : [ -0.8970062732696533, -1, 0 ],
			"max" : [ 1, 0.9349062442779541, 1 ]
		},
		{
			"bufferView" : 2,
			"byteOffset" : 0,
			"componentType" : 5126,
			"count" : 330225,
			"type" : "VEC2",
			"min" : [ -5.960464477539063e-8, 0 ],
			"max" : [ 1.0000001192092896, 1 ]
		},
		{
			"bufferView" : 3,
			"byteOffset" : 0,
			"componentType" : 5125,
			"count" : 330225,
			"type" : "SCALAR",
			"min" : [ 0 ],
			"max" : [ 330224 ]
		}
	],
	"bufferViews" : [
		{
			"buffer" : 0,
			"byteOffset" : 0,
			"byteLength" : 3962700,
			"target" : 34962
		},
		{
			"buffer" : 0,
			"byteOffset" : 3962700,
			"byteLength" : 3962700,
			"target" : 34962
		},
		{
			"buffer" : 0,
			"byteOffset" : 7925400,
			"byteLength" : 2641800,
			"target" : 34962
		},
		{
			"buffer" : 0,
			"byteOffset" : 10567200,
			"byteLength" : 1320900,
			"target" : 34963
		}
	],
	"buffers" : [
		{
			"uri" : "T21750168000106E10.bin",
			"byteLength" : 11888100
		}
	]
}