{
	"asset" : {
		"generator" : "FME 2023.1.0.0",
		"version" : "2.0"
	},
	"images" : [
		{
			"uri" : "T21000168000106E10_001.jpg"
		}
	],
	"samplers" : [
		{
			"wrapS" : 10497,
			"wrapT" : 10497,
			"magFilter" : 9729,
			"minFilter" : 9986
		}
	],
	"textures" : [
		{
			"source" : 0,
			"sampler" : 0
		}
	],
	"materials" : [
		{
			"name" : "T21000168000106E10",
			"pbrMetallicRoughness" : {
				"baseColorTexture" : {
					"index" : 0,
					"texCoord" : 0
				},
				"roughnessFactor" : 0.984375,
				"metallicFactor" : 0.5
			}
		}
	],
	"meshes" : [
		{
			"primitives" : [
				{
					"attributes" : {
						"NORMAL" : 1,
						"POSITION" : 0,
						"TEXCOORD_0" : 2
					},
					"indices" : 3,
					"material" : 0,
					"mode" : 4
				}
			]
		}
	],
	"nodes" : [
		{
			"name" : "T21000168000106E10",
			"matrix" : [ 1, 0, 0, 0, 0, 0, -1, 0, 0, 1, 0, 0, 821375, 0.921968936920166, -817100, 1 ],
			"children" : [ 1 ]
		},
		{
			"mesh" : 0
		}
	],
	"scenes" : [
		{
			"nodes" : [ 0 ]
		}
	],
	"scene" : 0,
	"accessors" : [
		{
			"bufferView" : 0,
			"byteOffset" : 0,
			"componentType" : 5126,
			"count" : 76326,
			"type" : "VEC3",
			"min" : [ -374.9765625, -300.00390625, 0.11303091049194336 ],
			"max" : [ 375.0234375, 299.99609375, 6.329030990600586 ]
		},
		{
			"bufferView" : 1,
			"byteOffset" : 0,
			"componentType" : 5126,
			"count" : 76326,
			"type" : "VEC3",
			"min" : [ -0.9462051391601562, -1, -0.9299425482749939 ],
			"max" : [ 0.9481701850891113, 0.9866428971290588, 1 ]
		},
		{
			"bufferView" : 2,
			"byteOffset" : 0,
			"componentType" : 5126,
			"count" : 76326,
			"type" : "VEC2",
			"min" : [ 0, 0.0008318424224853516 ],
			"max" : [ 1, 0.9991681575775146 ]
		},
		{
			"bufferView" : 3,
			"byteOffset" : 0,
			"componentType" : 5125,
			"count" : 76326,
			"type" : "SCALAR",
			"min" : [ 0 ],
			"max" : [ 76325 ]
		}
	],
	"bufferViews" : [
		{
			"buffer" : 0,
			"byteOffset" : 0,
			"byteLength" : 915912,
			"target" : 34962
		},
		{
			"buffer" : 0,
			"byteOffset" : 915912,
			"byteLength" : 915912,
			"target" : 34962
		},
		{
			"buffer" : 0,
			"byteOffset" : 1831824,
			"byteLength" : 610608,
			"target" : 34962
		},
		{
			"buffer" : 0,
			"byteOffset" : 2442432,
			"byteLength" : 305304,
			"target" : 34963
		}
	],
	"buffers" : [
		{
			"uri" : "T21000168000106E10.bin",
			"byteLength" : 2747736
		}
	]
}