{
	"asset" : {
		"generator" : "FME 2023.2.2.0",
		"version" : "2.0"
	},
	"images" : [
		{
			"uri" : "T21000162000106E10_001.jpg"
		}
	],
	"samplers" : [
		{
			"wrapS" : 10497,
			"wrapT" : 10497,
			"magFilter" : 9729,
			"minFilter" : 9986
		}
	],
	"textures" : [
		{
			"source" : 0,
			"sampler" : 0
		}
	],
	"materials" : [
		{
			"name" : "T21000162000106E10",
			"pbrMetallicRoughness" : {
				"baseColorTexture" : {
					"index" : 0,
					"texCoord" : 0
				},
				"roughnessFactor" : 0.984375,
				"metallicFactor" : 0.5
			}
		}
	],
	"meshes" : [
		{
			"primitives" : [
				{
					"attributes" : {
						"NORMAL" : 1,
						"POSITION" : 0,
						"TEXCOORD_0" : 2
					},
					"indices" : 3,
					"material" : 0,
					"mode" : 4
				}
			]
		}
	],
	"nodes" : [
		{
			"name" : "T21000162000106E10",
			"matrix" : [ 1, 0, 0, 0, 0, 0, -1, 0, 0, 1, 0, 0, 821375, 0.9528379440307617, -816500, 1 ],
			"children" : [ 1 ]
		},
		{
			"mesh" : 0
		}
	],
	"scenes" : [
		{
			"nodes" : [ 0 ]
		}
	],
	"scene" : 0,
	"accessors" : [
		{
			"bufferView" : 0,
			"byteOffset" : 0,
			"componentType" : 5126,
			"count" : 478653,
			"type" : "VEC3",
			"min" : [ -375.01953125, -300, 0 ],
			"max" : [ 375.04296875, 300, 23.419734954833984 ]
		},
		{
			"bufferView" : 1,
			"byteOffset" : 0,
			"componentType" : 5126,
			"count" : 478653,
			"type" : "VEC3",
			"min" : [ -1, -0.9212279319763184, 0 ],
			"max" : [ 1, 1, 1 ]
		},
		{
			"bufferView" : 2,
			"byteOffset" : 0,
			"componentType" : 5126,
			"count" : 478653,
			"type" : "VEC2",
			"min" : [ 0, 0 ],
			"max" : [ 1, 1 ]
		},
		{
			"bufferView" : 3,
			"byteOffset" : 0,
			"componentType" : 5125,
			"count" : 478653,
			"type" : "SCALAR",
			"min" : [ 0 ],
			"max" : [ 478652 ]
		}
	],
	"bufferViews" : [
		{
			"buffer" : 0,
			"byteOffset" : 0,
			"byteLength" : 5743836,
			"target" : 34962
		},
		{
			"buffer" : 0,
			"byteOffset" : 5743836,
			"byteLength" : 5743836,
			"target" : 34962
		},
		{
			"buffer" : 0,
			"byteOffset" : 11487672,
			"byteLength" : 3829224,
			"target" : 34962
		},
		{
			"buffer" : 0,
			"byteOffset" : 15316896,
			"byteLength" : 1914612,
			"target" : 34963
		}
	],
	"buffers" : [
		{
			"uri" : "T21000162000106E10.bin",
			"byteLength" : 17231508
		}
	]
}