{
	"asset" : {
		"generator" : "FME 2023.2.2.0",
		"version" : "2.0"
	},
	"images" : [
		{
			"uri" : "T21750156000106E10_001.jpg"
		}
	],
	"samplers" : [
		{
			"wrapS" : 10497,
			"wrapT" : 10497,
			"magFilter" : 9729,
			"minFilter" : 9986
		}
	],
	"textures" : [
		{
			"source" : 0,
			"sampler" : 0
		}
	],
	"materials" : [
		{
			"name" : "T21750156000106E10",
			"pbrMetallicRoughness" : {
				"baseColorTexture" : {
					"index" : 0,
					"texCoord" : 0
				},
				"roughnessFactor" : 0.984375,
				"metallicFactor" : 0.5
			}
		}
	],
	"meshes" : [
		{
			"primitives" : [
				{
					"attributes" : {
						"NORMAL" : 1,
						"POSITION" : 0,
						"TEXCOORD_0" : 2
					},
					"indices" : 3,
					"material" : 0,
					"mode" : 4
				}
			]
		}
	],
	"nodes" : [
		{
			"name" : "T21750156000106E10",
			"matrix" : [ 1, 0, 0, 0, 0, 0, -1, 0, 0, 1, 0, 0, 822125, 1.1262493133544922, -815900, 1 ],
			"children" : [ 1 ]
		},
		{
			"mesh" : 0
		}
	],
	"scenes" : [
		{
			"nodes" : [ 0 ]
		}
	],
	"scene" : 0,
	"accessors" : [
		{
			"bufferView" : 0,
			"byteOffset" : 0,
			"componentType" : 5126,
			"count" : 780795,
			"type" : "VEC3",
			"min" : [ -375, -300.0078125, 0 ],
			"max" : [ 375, 300, 63.933311462402344 ]
		},
		{
			"bufferView" : 1,
			"byteOffset" : 0,
			"componentType" : 5126,
			"count" : 780795,
			"type" : "VEC3",
			"min" : [ -0.9483174085617065, -1, 0 ],
			"max" : [ 1, 1, 1 ]
		},
		{
			"bufferView" : 2,
			"byteOffset" : 0,
			"componentType" : 5126,
			"count" : 780795,
			"type" : "VEC2",
			"min" : [ 0, 0 ],
			"max" : [ 1, 0.9999999403953552 ]
		},
		{
			"bufferView" : 3,
			"byteOffset" : 0,
			"componentType" : 5125,
			"count" : 780795,
			"type" : "SCALAR",
			"min" : [ 0 ],
			"max" : [ 780794 ]
		}
	],
	"bufferViews" : [
		{
			"buffer" : 0,
			"byteOffset" : 0,
			"byteLength" : 9369540,
			"target" : 34962
		},
		{
			"buffer" : 0,
			"byteOffset" : 9369540,
			"byteLength" : 9369540,
			"target" : 34962
		},
		{
			"buffer" : 0,
			"byteOffset" : 18739080,
			"byteLength" : 6246360,
			"target" : 34962
		},
		{
			"buffer" : 0,
			"byteOffset" : 24985440,
			"byteLength" : 3123180,
			"target" : 34963
		}
	],
	"buffers" : [
		{
			"uri" : "T21750156000106E10.bin",
			"byteLength" : 28108620
		}
	]
}