{
	"asset" : {
		"generator" : "FME 2023.2.1.0",
		"version" : "2.0"
	},
	"images" : [
		{
			"uri" : "T21750162000106E10_001.jpg"
		}
	],
	"samplers" : [
		{
			"wrapS" : 10497,
			"wrapT" : 10497,
			"magFilter" : 9729,
			"minFilter" : 9986
		}
	],
	"textures" : [
		{
			"source" : 0,
			"sampler" : 0
		}
	],
	"materials" : [
		{
			"name" : "T21750162000106E10",
			"pbrMetallicRoughness" : {
				"baseColorTexture" : {
					"index" : 0,
					"texCoord" : 0
				},
				"roughnessFactor" : 0.984375,
				"metallicFactor" : 0.5
			}
		}
	],
	"meshes" : [
		{
			"primitives" : [
				{
					"attributes" : {
						"NORMAL" : 1,
						"POSITION" : 0,
						"TEXCOORD_0" : 2
					},
					"indices" : 3,
					"material" : 0,
					"mode" : 4
				}
			]
		}
	],
	"nodes" : [
		{
			"name" : "T21750162000106E10",
			"matrix" : [ 1, 0, 0, 0, 0, 0, -1, 0, 0, 1, 0, 0, 822125, 1.0586376190185547, -816500, 1 ],
			"children" : [ 1 ]
		},
		{
			"mesh" : 0
		}
	],
	"scenes" : [
		{
			"nodes" : [ 0 ]
		}
	],
	"scene" : 0,
	"accessors" : [
		{
			"bufferView" : 0,
			"byteOffset" : 0,
			"componentType" : 5126,
			"count" : 158399,
			"type" : "VEC3",
			"min" : [ -375, -300.001953125, 0 ],
			"max" : [ 375, 300, 44.81983947753906 ]
		},
		{
			"bufferView" : 1,
			"byteOffset" : 0,
			"componentType" : 5126,
			"count" : 158399,
			"type" : "VEC3",
			"min" : [ -0.9151392579078674, -0.9324818253517151, 0.30299341678619385 ],
			"max" : [ 0.9071520566940308, 0.8733011484146118, 1 ]
		},
		{
			"bufferView" : 2,
			"byteOffset" : 0,
			"componentType" : 5126,
			"count" : 158399,
			"type" : "VEC2",
			"min" : [ 0, 0 ],
			"max" : [ 1, 1 ]
		},
		{
			"bufferView" : 3,
			"byteOffset" : 0,
			"componentType" : 5125,
			"count" : 941298,
			"type" : "SCALAR",
			"min" : [ 0 ],
			"max" : [ 158398 ]
		}
	],
	"bufferViews" : [
		{
			"buffer" : 0,
			"byteOffset" : 0,
			"byteLength" : 1900788,
			"target" : 34962
		},
		{
			"buffer" : 0,
			"byteOffset" : 1900788,
			"byteLength" : 1900788,
			"target" : 34962
		},
		{
			"buffer" : 0,
			"byteOffset" : 3801576,
			"byteLength" : 1267192,
			"target" : 34962
		},
		{
			"buffer" : 0,
			"byteOffset" : 5068768,
			"byteLength" : 3765192,
			"target" : 34963
		}
	],
	"buffers" : [
		{
			"uri" : "T21750162000106E10.bin",
			"byteLength" : 8833960
		}
	]
}